<?xml version="1.0" encoding="utf-8"?>
<!-- Generator: Adobe Illustrator 24.2.0, SVG Export Plug-In . SVG Version: 6.00 Build 0)  -->
<svg version="1.1" id="Layer_1" xmlns="http://www.w3.org/2000/svg" xmlns:xlink="http://www.w3.org/1999/xlink" x="0px" y="0px"
	 viewBox="0 0 138 44" style="enable-background:new 0 0 138 44;" xml:space="preserve">
<style type="text/css">
	.st0{fill:#181A20;}
	.st1{fill:#EB6753;}
	.st2{clip-path:url(#SVGID_2_);}
	.st3{fill:#FFFFFF;}
</style>
<path class="st0" d="M66.1,17c1.4,0,2.5,0.5,3.4,1.4c0.8,0.9,1.3,2.2,1.3,3.9v7.1h-3.1v-6.7c0-1-0.2-1.7-0.7-2.2
	c-0.5-0.5-1.2-0.8-2-0.8c-0.9,0-1.6,0.3-2.1,0.9C62.3,21,62,21.9,62,22.9v6.5h-3.1V13.1H62v6.5c0.3-0.8,0.9-1.5,1.6-1.9
	C64.3,17.3,65.2,17,66.1,17z M79.6,17c1.2,0,2.3,0.2,3.2,0.7c1,0.5,1.7,1.2,2.2,2.2c0.5,0.9,0.8,2,0.8,3.3c0,1.3-0.3,2.4-0.8,3.3
	c-0.5,0.9-1.3,1.7-2.2,2.2c-0.9,0.5-2,0.7-3.2,0.7c-1.2,0-2.3-0.2-3.2-0.7c-0.9-0.5-1.7-1.2-2.2-2.2c-0.5-0.9-0.8-2-0.8-3.3
	c0-1.3,0.3-2.4,0.8-3.3c0.5-1,1.3-1.7,2.2-2.2C77.3,17.3,78.4,17,79.6,17z M79.6,19.7c-0.9,0-1.6,0.3-2.2,0.9
	c-0.6,0.6-0.9,1.5-0.9,2.6c0,1.2,0.3,2,0.9,2.7c0.6,0.6,1.3,0.9,2.2,0.9c0.9,0,1.6-0.3,2.2-0.9c0.6-0.6,0.9-1.5,0.9-2.7
	c0-1.2-0.3-2-0.9-2.6C81.2,20,80.4,19.7,79.6,19.7z M104,17c1.5,0,2.6,0.5,3.5,1.4c0.9,0.9,1.3,2.2,1.3,3.9v7.1h-3.1v-6.7
	c0-0.9-0.2-1.7-0.7-2.2c-0.5-0.5-1.1-0.8-2-0.8c-0.9,0-1.6,0.3-2.1,0.8c-0.5,0.5-0.8,1.3-0.8,2.4v6.5h-3.1v-6.7
	c0-0.9-0.2-1.7-0.7-2.2c-0.5-0.5-1.1-0.8-2-0.8c-0.9,0-1.6,0.3-2.1,0.8c-0.5,0.5-0.8,1.3-0.8,2.4v6.5h-3.1V17.2h3.1v2.3
	c0.3-0.8,0.8-1.4,1.5-1.8c0.7-0.4,1.5-0.7,2.4-0.7c1,0,1.8,0.2,2.6,0.7c0.7,0.5,1.3,1.1,1.6,2c0.4-0.8,0.9-1.5,1.7-2
	C102.2,17.3,103,17,104,17z M123.4,22.8c0,0.3,0,0.7-0.1,1.1h-8.9c0,1.1,0.3,1.9,0.9,2.4s1.2,0.8,2,0.8c0.7,0,1.3-0.2,1.8-0.5
	c0.5-0.4,0.8-0.8,0.9-1.4h3.3c-0.2,0.9-0.5,1.6-1,2.3c-0.5,0.7-1.2,1.2-2,1.6c-0.8,0.4-1.7,0.6-2.8,0.6c-1.2,0-2.2-0.2-3.2-0.7
	c-0.9-0.5-1.6-1.2-2.2-2.2s-0.8-2-0.8-3.3c0-1.3,0.3-2.4,0.8-3.3c0.5-1,1.2-1.7,2.2-2.2c0.9-0.5,2-0.7,3.2-0.7
	c1.2,0,2.3,0.2,3.1,0.7c0.9,0.5,1.6,1.2,2.1,2.1C123.1,20.7,123.4,21.7,123.4,22.8z M120.3,22.5c0-1-0.2-1.8-0.8-2.3
	c-0.6-0.5-1.2-0.8-2.1-0.8c-0.8,0-1.5,0.3-2.1,0.8s-0.9,1.3-0.9,2.3H120.3z M128.5,26.8h6v2.6h-9.4v-2.5l5.6-7.1h-5.5v-2.6h9v2.4
	L128.5,26.8z"/>
<path class="st1" d="M23.5,0.4h4c11,0,20,9,20,20v4c0,11-9,20-20,20h-4c-11,0-20-9-20-20v-4C3.5,9.3,12.4,0.4,23.5,0.4z"/>
<g>
	<defs>
		<rect id="SVGID_1_" x="13.5" y="10.4" width="24" height="24"/>
	</defs>
	<clipPath id="SVGID_2_">
		<use xlink:href="#SVGID_1_"  style="overflow:visible;"/>
	</clipPath>
	<g class="st2">
		<path class="st3" d="M36.3,22.5l-1.1-1v9.2c0,1.5-1.3,2.8-2.8,2.8h-3.4c0.3-0.3,0.6-0.6,0.9-1c0.3-0.3,0.5-0.6,0.7-0.9h1.7
			c0.5,0,0.9-0.4,0.9-0.9V19.9l-7.8-6.8l-7.8,6.8v10.8c0,0.5,0.4,0.9,0.9,0.9h1.7c0.2,0.3,0.5,0.6,0.7,0.9c0.3,0.3,0.6,0.7,0.9,1
			h-3.4c-1.5,0-2.8-1.3-2.8-2.8v-9.2l-1.1,1l-1.2-1.4l12-10.4l12,10.4L36.3,22.5z M25.5,24.6c-0.8,0-1.4,0.6-1.4,1.4
			c0,0.8,0.6,1.4,1.4,1.4s1.4-0.6,1.4-1.4C26.9,25.2,26.3,24.6,25.5,24.6z M30.9,26.3c0,1.5-0.8,3.2-2.5,5.1
			c-1.2,1.3-2.3,2.3-2.3,2.3l-0.6,0.5l-0.6-0.5c0,0-1.2-1-2.3-2.3c-1.6-1.9-2.5-3.6-2.5-5.1V26c0-3,2.4-5.4,5.4-5.4
			c3,0,5.4,2.4,5.4,5.4V26.3z M29,26c0-1.9-1.6-3.5-3.5-3.5c-1.9,0-3.5,1.6-3.5,3.5v0.3c0,1,0.7,2.4,2,3.8c0.6,0.6,1.1,1.2,1.5,1.6
			c1.3-1.2,3.5-3.6,3.5-5.4L29,26L29,26z"/>
	</g>
</g>
</svg>
