<?xml version="1.0" encoding="utf-8"?>
<!-- Generator: Adobe Illustrator 24.2.0, SVG Export Plug-In . SVG Version: 6.00 Build 0)  -->
<svg version="1.1" id="Layer_1" xmlns="http://www.w3.org/2000/svg" xmlns:xlink="http://www.w3.org/1999/xlink" x="0px" y="0px"
	 viewBox="0 0 138 44" style="enable-background:new 0 0 138 44;" xml:space="preserve">
<style type="text/css">
	.st0{fill:#181A20;}
	.st1{clip-path:url(#SVGID_2_);}
	.st2{fill:#FFFFFF;}
</style>
<path class="st0" d="M62.7,16.6c1.4,0,2.5,0.5,3.4,1.4c0.8,0.9,1.3,2.2,1.3,3.9V29h-3.1v-6.7c0-1-0.2-1.7-0.7-2.2
	c-0.5-0.5-1.2-0.8-2-0.8c-0.9,0-1.6,0.3-2.1,0.9c-0.5,0.6-0.8,1.4-0.8,2.5V29h-3.1V12.7h3.1v6.5c0.3-0.8,0.9-1.5,1.6-1.9
	C60.8,16.9,61.7,16.6,62.7,16.6z M76.1,16.7c1.2,0,2.3,0.2,3.2,0.7c1,0.5,1.7,1.2,2.2,2.2c0.5,0.9,0.8,2,0.8,3.3
	c0,1.3-0.3,2.4-0.8,3.3c-0.5,0.9-1.3,1.7-2.2,2.2c-0.9,0.5-2,0.7-3.2,0.7c-1.2,0-2.3-0.2-3.2-0.7c-0.9-0.5-1.7-1.2-2.2-2.2
	c-0.5-0.9-0.8-2-0.8-3.3c0-1.3,0.3-2.4,0.8-3.3c0.5-1,1.3-1.7,2.2-2.2C73.8,16.9,74.9,16.7,76.1,16.7z M76.1,19.3
	c-0.9,0-1.6,0.3-2.2,0.9c-0.6,0.6-0.9,1.5-0.9,2.6c0,1.2,0.3,2,0.9,2.7c0.6,0.6,1.3,0.9,2.2,0.9c0.9,0,1.6-0.3,2.2-0.9
	c0.6-0.6,0.9-1.5,0.9-2.7c0-1.2-0.3-2-0.9-2.6C77.7,19.6,77,19.3,76.1,19.3z M100.5,16.6c1.5,0,2.6,0.5,3.5,1.4
	c0.9,0.9,1.3,2.2,1.3,3.9V29h-3.1v-6.7c0-0.9-0.2-1.7-0.7-2.2c-0.5-0.5-1.1-0.8-2-0.8c-0.9,0-1.6,0.3-2.1,0.8
	c-0.5,0.5-0.8,1.3-0.8,2.4V29h-3.1v-6.7c0-0.9-0.2-1.7-0.7-2.2c-0.5-0.5-1.1-0.8-2-0.8c-0.9,0-1.6,0.3-2.1,0.8
	c-0.5,0.5-0.8,1.3-0.8,2.4V29H85V16.8h3.1v2.3c0.3-0.8,0.8-1.4,1.5-1.8c0.7-0.4,1.5-0.7,2.4-0.7c1,0,1.8,0.2,2.6,0.7
	c0.7,0.5,1.3,1.1,1.6,2c0.4-0.8,0.9-1.5,1.7-2C98.7,16.9,99.5,16.6,100.5,16.6z M119.9,22.4c0,0.3,0,0.7-0.1,1.1h-8.9
	c0,1.1,0.3,1.9,0.9,2.4s1.2,0.8,2,0.8c0.7,0,1.3-0.2,1.8-0.5c0.5-0.4,0.8-0.8,0.9-1.4h3.3c-0.2,0.9-0.5,1.6-1,2.3
	c-0.5,0.7-1.2,1.2-2,1.6c-0.8,0.4-1.7,0.6-2.8,0.6c-1.2,0-2.2-0.2-3.2-0.7c-0.9-0.5-1.6-1.2-2.2-2.2s-0.8-2-0.8-3.3
	c0-1.3,0.3-2.4,0.8-3.3c0.5-1,1.2-1.7,2.2-2.2c0.9-0.5,2-0.7,3.2-0.7c1.2,0,2.3,0.2,3.1,0.7c0.9,0.5,1.6,1.2,2.1,2.1
	C119.7,20.3,119.9,21.3,119.9,22.4z M116.8,22.1c0-1-0.2-1.8-0.8-2.3c-0.6-0.5-1.2-0.8-2.1-0.8c-0.8,0-1.5,0.3-2.1,0.8
	s-0.9,1.3-0.9,2.3H116.8z M125.1,26.4h6V29h-9.4v-2.5l5.6-7.1h-5.5v-2.6h9v2.4L125.1,26.4z"/>
<path class="st0" d="M20,0h4c11,0,20,9,20,20v4c0,11-9,20-20,20h-4C9,44,0,35,0,24v-4C0,9,9,0,20,0z"/>
<g>
	<defs>
		<rect id="SVGID_1_" x="10" y="10" width="24" height="24"/>
	</defs>
	<clipPath id="SVGID_2_">
		<use xlink:href="#SVGID_1_"  style="overflow:visible;"/>
	</clipPath>
	<g class="st1">
		<path class="st2" d="M32.8,22.1l-1.1-1v9.2c0,1.5-1.3,2.8-2.8,2.8h-3.4c0.3-0.3,0.6-0.6,0.9-1c0.3-0.3,0.5-0.6,0.7-0.9h1.7
			c0.5,0,0.9-0.4,0.9-0.9V19.5L22,12.8l-7.8,6.8v10.8c0,0.5,0.4,0.9,0.9,0.9h1.7c0.2,0.3,0.5,0.6,0.7,0.9c0.3,0.3,0.6,0.7,0.9,1
			h-3.4c-1.5,0-2.8-1.3-2.8-2.8v-9.2l-1.1,1L10,20.7l12-10.4l12,10.4L32.8,22.1z M22,24.2c-0.8,0-1.4,0.6-1.4,1.4
			c0,0.8,0.6,1.4,1.4,1.4s1.4-0.6,1.4-1.4C23.4,24.8,22.8,24.2,22,24.2z M27.4,25.9c0,1.5-0.8,3.2-2.5,5.1c-1.2,1.3-2.3,2.3-2.3,2.3
			L22,33.8l-0.6-0.5c0,0-1.2-1-2.3-2.3c-1.6-1.9-2.5-3.6-2.5-5.1v-0.3c0-3,2.4-5.4,5.4-5.4c3,0,5.4,2.4,5.4,5.4V25.9z M25.5,25.6
			c0-1.9-1.6-3.5-3.5-3.5c-1.9,0-3.5,1.6-3.5,3.5v0.3c0,1,0.7,2.4,2,3.8c0.6,0.6,1.1,1.2,1.5,1.6c1.3-1.2,3.5-3.6,3.5-5.4L25.5,25.6
			L25.5,25.6z"/>
	</g>
</g>
</svg>
